<?xml version="1.0" encoding="UTF-8" standalone="no"?>
<!DOCTYPE svg PUBLIC "-//W3C//DTD SVG 1.1//EN" "http://www.w3.org/Graphics/SVG/1.1/DTD/svg11.dtd">
<svg width="100%" height="100%" viewBox="0 0 1654 827" version="1.1" xmlns="http://www.w3.org/2000/svg" xmlns:xlink="http://www.w3.org/1999/xlink" xml:space="preserve" xmlns:serif="http://www.serif.com/" style="fill-rule:evenodd;clip-rule:evenodd;stroke-linecap:round;stroke-linejoin:round;stroke-miterlimit:1.5;">
    <g transform="matrix(0.9992,-0.0383932,0.039994,0.959206,-513.826,-244.519)">
        <path d="M1275.59,708.47L1287.4,413.386" style="fill:none;stroke:black;stroke-width:16.98px;"/>
    </g>
    <g transform="matrix(0.9992,-0.0383932,0.039994,0.959206,6.85951,-244.519)">
        <path d="M1275.59,708.47L1287.4,413.386" style="fill:none;stroke:black;stroke-width:16.98px;"/>
    </g>
    <g transform="matrix(1,0,0,1,-488.181,-322.508)">
        <path d="M803.15,708.47L803.15,425.197L2031.5,425.197" style="fill:none;stroke:black;stroke-width:16.67px;"/>
    </g>
    <g transform="matrix(1,0,0,1,338.591,-346.322)">
        <circle cx="448.819" cy="732.283" r="23.622"/>
    </g>
    <g transform="matrix(1,0,0,1,338.591,-110.102)">
        <circle cx="448.819" cy="732.283" r="23.622"/>
    </g>
    <g transform="matrix(1,0,0,1,340.402,-629.595)">
        <circle cx="448.819" cy="732.283" r="23.622"/>
    </g>
    <g transform="matrix(1,0,0,1,858.276,-346.13)">
        <circle cx="448.819" cy="732.283" r="23.622"/>
    </g>
    <g transform="matrix(1,0,0,1,-133.85,-346.13)">
        <circle cx="448.819" cy="732.283" r="23.622"/>
    </g>
    <g transform="matrix(1,0,0,1,-488.181,-322.508)">
        <path d="M944.882,614.173L944.882,803.15L1133.86,708.661L944.882,614.173Z" style="fill:none;stroke:black;stroke-width:16.67px;"/>
    </g>
    <g transform="matrix(1,0,0,1,-484.181,-322.508)">
        <path d="M974.113,661.034C951.564,673.325 1000.38,744.41 974.113,755.906" style="fill:none;stroke:black;stroke-width:16.67px;"/>
    </g>
    <g transform="matrix(1,0,0,1,7.88227,-322.508)">
        <path d="M944.882,614.173L944.882,803.15L1133.86,708.661L944.882,614.173Z" style="fill:none;stroke:black;stroke-width:16.67px;"/>
    </g>
    <g transform="matrix(1,0,0,1,11.8823,-322.508)">
        <path d="M974.113,661.034C951.564,673.325 1000.38,744.41 974.113,755.906" style="fill:none;stroke:black;stroke-width:16.67px;"/>
    </g>
    <g transform="matrix(1,0,0,1,-488.181,-322.508)">
        <path d="M1275.59,708.47L1275.59,944.882L803.15,944.882L803.15,708.661" style="fill:none;stroke:black;stroke-width:16.67px;"/>
    </g>
    <g transform="matrix(1,0,0,1,-488.181,-322.7)">
        <path d="M1795.28,708.661L1795.28,944.882L1275.59,944.882" style="fill:none;stroke:black;stroke-width:16.67px;"/>
    </g>
    <g transform="matrix(1,0,0,1,-488.181,-322.508)">
        <path d="M1133.86,708.47L1440.94,708.47" style="fill:none;stroke:black;stroke-width:16.67px;"/>
    </g>
    <g transform="matrix(0.411765,0.000281014,0.000281014,1,470.397,-322.966)">
        <path d="M1629.92,708.661L2031.5,708.47" style="fill:none;stroke:black;stroke-width:21.79px;"/>
    </g>
    <g transform="matrix(1,0,0,1,-488.181,-322.508)">
        <path d="M590.551,708.47L944.882,708.661" style="fill:none;stroke:black;stroke-width:16.67px;"/>
    </g>
    <g transform="matrix(2,0,0,-1.33333,-1716.53,1627.37)">
        <path d="M1251.97,803.15L1275.59,874.016L1228.35,874.016L1251.97,803.15Z" style="fill:white;stroke:black;stroke-width:9.81px;"/>
    </g>
    <g transform="matrix(2,0,0,-1.33333,-1196.84,1627.37)">
        <path d="M1251.97,803.15L1275.59,874.016L1228.35,874.016L1251.97,803.15Z" style="fill:white;stroke:black;stroke-width:9.81px;"/>
    </g>
    <g transform="matrix(2,0,0,1.33333,-1195.84,-873.689)">
        <path d="M1251.97,803.15L1275.59,874.016L1228.35,874.016L1251.97,803.15Z" style="fill:white;stroke:black;stroke-width:9.81px;"/>
    </g>
    <g transform="matrix(2,0,0,1.33333,-1715.72,-873.689)">
        <path d="M1251.97,803.15L1275.59,874.016L1228.35,874.016L1251.97,803.15Z" style="fill:white;stroke:black;stroke-width:9.81px;"/>
    </g>
    <g transform="matrix(2,0,0,1.33333,-2188.97,-873.689)">
        <path d="M1251.97,803.15L1275.59,874.016L1228.35,874.016L1251.97,803.15Z" style="fill:white;stroke:black;stroke-width:9.81px;"/>
    </g>
    <g transform="matrix(1,0,0,1,1094.5,-629.595)">
        <circle cx="448.819" cy="732.283" r="23.622"/>
    </g>
    <g transform="matrix(0.5,0,0,0.5,1318.91,-263.453)">
        <circle cx="448.819" cy="732.283" r="23.622" style="fill:white;"/>
    </g>
    <g transform="matrix(1,0,0,1,-346.448,-346.13)">
        <circle cx="448.819" cy="732.283" r="23.622"/>
    </g>
    <g transform="matrix(0.5,0,0,0.5,-122.039,20.0115)">
        <circle cx="448.819" cy="732.283" r="23.622" style="fill:white;"/>
    </g>
    <g transform="matrix(1,0,0,1,861.276,-629.595)">
        <circle cx="448.819" cy="732.283" r="23.622"/>
    </g>
    <g transform="matrix(1,0,0,1,-620.223,-287.678)">
        <text x="1261.83px" y="815.564px" style="font-family:'ArialMT', 'Arial', sans-serif;font-size:83.333px;">-a</text>
        <g transform="matrix(48.5833,0,0,48.5833,1362.95,843.314)">
        </g>
        <text x="1335.93px" y="843.314px" style="font-family:'ArialMT', 'Arial', sans-serif;font-size:48.583px;">1</text>
    </g>
    <g transform="matrix(1,0,0,1,-592.472,-571.143)">
        <text x="1261.83px" y="815.564px" style="font-family:'ArialMT', 'Arial', sans-serif;font-size:83.333px;">b</text>
        <g transform="matrix(48.5833,0,0,48.5833,1335.2,843.314)">
        </g>
        <text x="1308.18px" y="843.314px" style="font-family:'ArialMT', 'Arial', sans-serif;font-size:48.583px;">1</text>
    </g>
    <g transform="matrix(1,0,0,1,-646.345,-468.923)">
        <text x="1261.83px" y="815.564px" style="font-family:'ArialMT', 'Arial', sans-serif;font-size:83.333px;">x</text>
        <g transform="matrix(48.5833,0,0,48.5833,1330.52,843.314)">
        </g>
        <text x="1303.5px" y="843.314px" style="font-family:'ArialMT', 'Arial', sans-serif;font-size:48.583px;">1</text>
    </g>
    <g transform="matrix(1,0,0,1,-144.326,-476.654)">
        <text x="1261.83px" y="815.564px" style="font-family:'ArialMT', 'Arial', sans-serif;font-size:83.333px;">x</text>
        <g transform="matrix(48.5833,0,0,48.5833,1330.52,843.314)">
        </g>
        <text x="1303.5px" y="843.314px" style="font-family:'ArialMT', 'Arial', sans-serif;font-size:48.583px;">2</text>
    </g>
    <g transform="matrix(1,0,0,1,-1062.94,-571.143)">
        <g transform="matrix(83.3333,0,0,83.3333,1308.18,815.564)">
        </g>
        <text x="1261.83px" y="815.564px" style="font-family:'ArialMT', 'Arial', sans-serif;font-size:83.333px;">d</text>
    </g>
    <g transform="matrix(1,0,0,1,-84.1767,-571.143)">
        <text x="1261.83px" y="815.564px" style="font-family:'ArialMT', 'Arial', sans-serif;font-size:83.333px;">b</text>
        <g transform="matrix(48.5833,0,0,48.5833,1335.2,843.314)">
        </g>
        <text x="1308.18px" y="843.314px" style="font-family:'ArialMT', 'Arial', sans-serif;font-size:48.583px;">2</text>
    </g>
    <g transform="matrix(1,0,0,1,-100.538,-298.08)">
        <text x="1261.83px" y="815.564px" style="font-family:'ArialMT', 'Arial', sans-serif;font-size:83.333px;">-a</text>
        <g transform="matrix(48.5833,0,0,48.5833,1362.95,843.314)">
        </g>
        <text x="1335.93px" y="843.314px" style="font-family:'ArialMT', 'Arial', sans-serif;font-size:48.583px;">2</text>
    </g>
    <g transform="matrix(1,0,0,1,-420.433,-293.839)">
        <g transform="matrix(83.3333,0,0,83.3333,1496.68,1040.53)">
        </g>
        <text x="945.612px" y="1040.53px" style="font-family:'ArialMT', 'Arial', sans-serif;font-size:83.333px;">Controller form</text>
    </g>
    <g transform="matrix(1,0,0,1,-64.2745,36.6362)">
        <g transform="matrix(83.3333,0,0,83.3333,240.522,450.09)">
        </g>
        <text x="115.522px" y="450.09px" style="font-family:'ArialMT', 'Arial', sans-serif;font-size:83.333px;">u(t)</text>
    </g>
    <g transform="matrix(1,0,0,1,1364.13,-239.157)">
        <g transform="matrix(83.3333,0,0,83.3333,235.843,450.09)">
        </g>
        <text x="115.522px" y="450.09px" style="font-family:'ArialMT', 'Arial', sans-serif;font-size:83.333px;">y(t)</text>
    </g>
</svg>
